<svg width="825" height="640" xmlns="http://www.w3.org/2000/svg" xmlns:xlink="http://www.w3.org/1999/xlink" overflow="hidden"><defs><clipPath id="clip0"><rect x="212" y="24" width="825" height="640"/></clipPath><clipPath id="clip1"><rect x="213" y="25" width="824" height="638"/></clipPath><clipPath id="clip2"><rect x="213" y="25" width="824" height="638"/></clipPath><clipPath id="clip3"><rect x="213" y="25" width="824" height="638"/></clipPath><radialGradient cx="714.79" cy="561.192" r="582.568" gradientUnits="userSpaceOnUse" spreadMethod="pad" id="fill4" gradientTransform="scale(0.578652 0.578652)"><stop offset="0" stop-color="#C2CCD3" stop-opacity="1"/><stop offset="0.6043" stop-color="#C2CCD3" stop-opacity="1"/><stop offset="1" stop-color="#364953" stop-opacity="1"/></radialGradient><clipPath id="clip5"><rect x="469" y="266" width="315" height="182"/></clipPath></defs><g clip-path="url(#clip0)" transform="translate(-212 -24)"><g clip-path="url(#clip1)"><g clip-path="url(#clip2)"><g clip-path="url(#clip3)"><path d="M687.554 50.8056C705.955 68.2809 722.447 87.7236 736.971 108.671 744.204 119.144 750.858 130.023 756.992 141.191 763.126 152.359 768.681 163.874 773.657 175.621 783.668 199.114 791.133 223.649 796.225 248.647 801.259 273.702 803.805 299.221 803.863 324.739 803.805 350.258 801.317 375.834 796.283 400.832 793.736 413.331 790.612 425.714 786.851 437.924 784.941 443.999 782.974 450.075 780.775 456.093 778.576 462.111 776.261 468.013 773.773 473.916 768.797 485.662 763.242 497.178 757.108 508.345 750.974 519.513 744.262 530.334 737.087 540.866 722.62 561.813 706.071 581.256 687.67 598.731 705.087 580.33 720.942 560.482 734.656 539.245 741.542 528.656 747.907 517.72 753.694 506.552 759.48 495.326 764.804 483.926 769.491 472.238 771.863 466.393 774.062 460.491 776.088 454.531 778.171 448.571 780.08 442.611 781.874 436.535 785.462 424.441 788.413 412.231 790.785 399.848 795.588 375.14 798.018 349.969 797.961 324.797 798.018 299.626 795.588 274.454 790.785 249.746 786.04 225.038 778.807 200.792 769.491 177.415 764.804 165.726 759.48 154.269 753.694 143.101 747.907 131.875 741.542 120.996 734.656 110.407 720.826 89.0545 704.971 69.2067 687.554 50.8056ZM92.7 539.188C85.814 528.598 79.4489 517.662 73.6624 506.494 67.8758 495.268 62.5522 483.869 57.8652 472.18 48.491 448.802 41.2579 424.557 36.5708 399.848 31.768 375.14 29.3376 349.969 29.3955 324.797 29.3376 299.626 31.768 274.454 36.5708 249.746 38.9433 237.363 41.8944 225.153 45.482 213.06 47.2758 207.042 49.1854 201.024 51.2685 195.063 53.3517 189.103 55.5506 183.201 57.8652 177.357 62.5522 165.668 67.8758 154.211 73.6624 143.043 79.4489 131.817 85.814 120.938 92.7 110.349 106.414 89.1124 122.211 69.2646 139.687 50.8635 121.285 68.3388 104.736 87.7815 90.2697 108.729 83.0365 119.202 76.382 130.081 70.2483 141.249 64.1146 152.417 58.5595 163.932 53.5831 175.679 51.0949 181.523 48.7803 187.483 46.5815 193.501 44.3826 199.519 42.3573 205.537 40.5056 211.671 36.7444 223.707 33.5618 236.09 31.0157 248.589 25.9815 273.644 23.4354 299.163 23.4354 324.681 23.4933 350.2 25.9815 375.776 31.0736 400.774 36.1657 425.772 43.6303 450.307 53.641 473.8 58.6174 485.547 64.1146 497.062 70.3062 508.23 76.4399 519.398 83.1522 530.219 90.3275 540.75 104.794 561.697 121.343 581.14 139.744 598.615 122.269 580.272 106.414 560.366 92.7 539.188ZM683.388 144.489 684.487 146.167 685.529 147.903 687.554 151.317 691.604 158.145 692.588 159.881C692.935 160.46 693.225 161.039 693.514 161.617L695.366 165.147 699.069 172.207C700.342 174.521 701.384 177.01 702.541 179.382L705.955 186.557 706.823 188.351C707.112 188.93 707.344 189.566 707.575 190.203L709.08 193.848 712.089 201.197 712.841 203.049C713.072 203.685 713.304 204.264 713.535 204.901L714.866 208.662 717.528 216.126 718.165 217.978 718.743 219.888 719.901 223.649 722.215 231.229C722.389 231.866 722.62 232.502 722.794 233.139L723.257 235.048 724.24 238.867 726.208 246.506C726.555 247.779 726.844 249.052 727.076 250.383L727.886 254.26 729.506 262.013C729.795 263.286 729.969 264.617 730.201 265.89L730.837 269.767 732.11 277.579 732.284 278.563 732.399 279.547 732.631 281.514 733.094 285.449 734.02 293.319C734.425 298.584 734.772 303.85 735.119 309.058L735.466 324.855 735.119 340.652C734.714 345.918 734.425 351.184 734.02 356.392L733.094 364.261 732.631 368.196 732.399 370.163 732.284 371.147 732.11 372.131 730.837 379.943 730.201 383.82C729.969 385.093 729.795 386.424 729.506 387.697L727.886 395.451 727.076 399.328C726.786 400.601 726.555 401.931 726.208 403.204L724.24 410.843 723.257 414.662 722.794 416.571C722.62 417.208 722.389 417.844 722.215 418.481L719.901 426.061 718.743 429.822 718.165 431.732 717.47 433.584 714.808 441.048 713.477 444.81C713.246 445.446 713.072 446.083 712.783 446.661L712.031 448.513 709.022 455.862 707.517 459.507C707.286 460.144 707.055 460.722 706.765 461.359L705.897 463.153 702.541 470.328 700.863 473.916C700.574 474.494 700.342 475.131 699.995 475.71L699.069 477.445 695.366 484.505 693.514 488.035C693.225 488.613 692.935 489.192 692.588 489.771L691.604 491.507 687.554 498.335 685.529 501.749 684.487 503.485 683.388 505.163C672.162 523.217 659.084 540.113 644.734 556.026 660.589 541.618 674.824 525.358 687.322 507.825L688.538 506.204 689.637 504.526 691.836 501.17 696.292 494.4 697.391 492.722C697.738 492.143 698.085 491.565 698.433 490.986L700.516 487.514 704.624 480.512 705.666 478.776C706.013 478.198 706.302 477.561 706.592 476.983L708.443 473.395 712.147 466.162 713.072 464.368C713.362 463.789 713.651 463.153 713.94 462.516L715.618 458.813 718.975 451.406C736.219 411.711 745.13 368.254 745.13 324.855 745.13 281.456 736.276 238.057 718.975 198.304L715.618 190.897 713.94 187.194C713.651 186.557 713.42 185.979 713.072 185.342L712.147 183.548 708.443 176.315 706.592 172.728C706.244 172.149 705.955 171.512 705.666 170.934L704.624 169.198 700.516 162.196 698.49 158.724C698.143 158.145 697.796 157.567 697.449 156.988L696.349 155.31 691.894 148.54 689.695 145.184 688.595 143.506 687.38 141.885C674.881 124.352 660.647 108.092 644.792 93.6837 659.084 109.539 672.162 126.435 683.388 144.489ZM143.853 504.989 142.753 503.311 141.712 501.575 139.687 498.161 135.636 491.333 134.652 489.597C134.305 489.019 134.016 488.44 133.726 487.861L131.875 484.331 128.171 477.272C126.898 474.957 125.857 472.469 124.699 470.097L121.285 462.921 120.417 461.128C120.128 460.549 119.897 459.912 119.665 459.276L118.161 455.63 115.152 448.281 114.399 446.43C114.168 445.793 113.937 445.215 113.705 444.578L112.374 440.817 109.712 433.352 109.076 431.501 108.497 429.591 107.34 425.83 105.025 418.249C104.852 417.613 104.62 416.976 104.447 416.34L103.984 414.43 103 410.611 101.033 402.973C100.685 401.7 100.396 400.427 100.165 399.096L99.3545 395.219 97.7343 387.465C97.4449 386.192 97.2713 384.861 97.0399 383.588L96.4034 379.711 95.1303 371.899 94.9567 370.916 94.841 369.932 94.6096 367.965 94.1466 364.03 93.2208 356.16C92.8157 350.894 92.4685 345.629 92.1213 340.421L91.7742 324.624 92.1213 308.826C92.5264 303.561 92.8157 298.295 93.2208 293.087L94.1466 285.217 94.6096 281.283 94.841 279.315 94.9567 278.331 95.1303 277.348 96.4034 269.536 97.0399 265.659C97.2713 264.386 97.4449 263.055 97.7343 261.782L99.3545 254.028 100.165 250.151C100.454 248.878 100.685 247.547 101.033 246.274L103 238.636 103.984 234.817 104.447 232.907C104.62 232.271 104.852 231.634 105.025 230.998L107.34 223.417 108.497 219.656 109.076 217.747 109.77 215.895 112.432 208.43 113.763 204.669C113.994 204.033 114.168 203.396 114.457 202.817L115.21 200.966 118.219 193.617 119.723 189.971C119.954 189.335 120.186 188.756 120.475 188.12L121.343 186.326 124.699 179.151 126.378 175.563C126.667 174.984 126.898 174.348 127.245 173.769L128.171 172.033 131.875 164.974 133.726 161.444C134.016 160.865 134.305 160.287 134.652 159.708L135.636 157.972 139.687 151.144 141.712 147.73 142.753 145.994 143.853 144.316C155.079 126.262 168.156 109.365 182.507 93.4522 166.652 107.861 152.417 124.121 139.918 141.654L138.703 143.274 137.603 144.952 135.404 148.308 130.949 155.079 129.849 156.757C129.502 157.335 129.155 157.914 128.808 158.493L126.725 161.965 122.616 168.966 121.575 170.702C121.228 171.281 120.938 171.917 120.649 172.496L118.797 176.084 115.094 183.317 114.168 185.111C113.879 185.689 113.589 186.326 113.3 186.962L111.622 190.666 108.266 198.072C91.0219 237.768 82.1107 281.225 82.1107 324.624 82.1107 368.022 90.964 411.421 108.266 451.175L111.622 458.581 113.3 462.285C113.589 462.921 113.821 463.5 114.168 464.136L115.094 465.93 118.797 473.163 120.649 476.751C120.996 477.33 121.285 477.966 121.575 478.545L122.616 480.281 126.725 487.283 128.75 490.754C129.097 491.333 129.444 491.912 129.792 492.49L130.891 494.169 135.347 500.939 137.546 504.295 138.645 505.973 139.86 507.593C152.359 525.126 166.594 541.386 182.449 555.795 168.156 539.94 155.079 523.043 143.853 504.989ZM610.246 146.515C612.908 149.929 615.512 153.458 618.116 156.872 618.81 157.74 619.389 158.608 619.967 159.534L621.819 162.196 625.522 167.52C625.812 167.983 626.159 168.388 626.448 168.851L627.316 170.239 629.052 172.959 632.466 178.456C641.378 193.212 648.958 208.662 655.034 224.69 667.243 256.632 673.493 290.657 673.493 324.739 673.493 358.764 667.243 392.789 655.034 424.73 648.958 440.701 641.378 456.209 632.466 470.965L629.052 476.462 627.316 479.181 626.448 480.57C626.159 481.033 625.812 481.438 625.522 481.901L621.819 487.225 619.967 489.886C619.331 490.754 618.752 491.68 618.116 492.548 615.512 496.02 612.908 499.492 610.246 502.906 607.469 506.262 604.691 509.619 601.971 513.033 605.212 510.139 608.452 507.13 611.693 504.179 614.817 501.112 617.826 497.93 620.893 494.747 621.703 493.995 622.398 493.127 623.092 492.317L625.233 489.829 629.515 484.852C629.862 484.447 630.267 484.042 630.615 483.579L631.598 482.248 633.624 479.644 637.674 474.379C648.148 460.144 657.059 444.752 664.292 428.492 678.758 396.029 686.223 360.326 686.223 324.681 686.223 288.979 678.701 253.334 664.292 220.871 657.059 204.669 648.148 189.219 637.674 174.984L633.624 169.719 631.598 167.115 630.615 165.784C630.267 165.379 629.92 164.974 629.515 164.511L625.233 159.534 623.092 157.046C622.34 156.236 621.646 155.368 620.893 154.616 617.826 151.491 614.817 148.308 611.693 145.184 608.452 142.233 605.27 139.224 601.971 136.33 604.691 139.86 607.469 143.158 610.246 146.515ZM216.994 502.964C214.333 499.55 211.729 496.02 209.125 492.606 208.43 491.738 207.852 490.87 207.273 489.944L205.421 487.283 201.718 481.959C201.429 481.496 201.081 481.091 200.792 480.628L199.924 479.239 198.188 476.52 194.774 471.022C185.863 456.267 178.283 440.817 172.207 424.788 159.997 392.847 153.748 358.822 153.748 324.739 153.748 290.715 159.997 256.69 172.207 224.748 178.283 208.778 185.863 193.27 194.774 178.514L198.188 173.017 199.924 170.297 200.792 168.908C201.081 168.446 201.429 168.04 201.718 167.578L205.421 162.254 207.273 159.592C207.91 158.724 208.488 157.798 209.125 156.93 211.729 153.458 214.333 149.987 216.994 146.572 219.772 143.216 222.549 139.86 225.269 136.446 222.029 139.339 218.788 142.348 215.548 145.299 212.423 148.366 209.414 151.549 206.347 154.731 205.537 155.484 204.843 156.352 204.148 157.162L202.007 159.65 197.725 164.626C197.378 165.031 196.973 165.437 196.626 165.899L195.642 167.23 193.617 169.834 189.566 175.1C179.093 189.335 170.181 204.727 162.948 220.987 148.482 253.449 141.017 289.152 141.017 324.797 141.017 360.5 148.54 396.145 162.948 428.607 170.181 444.81 179.093 460.26 189.566 474.494L193.617 479.76 195.642 482.364 196.626 483.695C196.973 484.1 197.32 484.505 197.725 484.968L202.007 489.944 204.148 492.433C204.901 493.243 205.595 494.111 206.347 494.863 209.414 497.988 212.423 501.17 215.548 504.295 218.788 507.246 221.971 510.255 225.269 513.148 222.549 509.619 219.772 506.32 216.994 502.964ZM565.169 187.367 570.898 195.642C572.749 198.42 574.485 201.255 576.279 204.09 578.015 206.926 579.635 209.819 581.313 212.654 587.794 224.17 593.292 236.148 597.689 248.473 606.543 273.066 610.998 298.874 610.998 324.797 610.998 350.663 606.485 376.529 597.631 401.063 593.234 413.331 587.737 425.309 581.256 436.882 579.578 439.717 577.957 442.611 576.221 445.446 574.427 448.224 572.634 451.059 570.84 453.894L565.111 462.169C563.086 464.831 561.061 467.551 559.093 470.328 580.619 453.721 597.921 431.211 609.667 406.04 621.414 380.811 627.548 352.804 627.49 324.797 627.49 296.79 621.356 268.784 609.61 243.612 597.863 218.441 580.561 195.931 559.093 179.324 561.119 181.986 563.144 184.706 565.169 187.367ZM262.071 462.111 256.343 453.836C254.491 451.059 252.755 448.224 250.961 445.388 249.225 442.553 247.605 439.66 245.927 436.824 239.446 425.309 233.949 413.331 229.551 401.006 220.698 376.413 216.242 350.605 216.242 324.681 216.242 298.816 220.756 272.95 229.609 248.415 234.007 236.148 239.504 224.17 245.985 212.597 247.663 209.761 249.283 206.868 251.019 204.033 252.813 201.255 254.607 198.42 256.401 195.584L262.129 187.31C264.154 184.648 266.18 181.928 268.147 179.151 246.621 195.758 229.32 218.267 217.573 243.439 205.826 268.668 199.693 296.675 199.751 324.681 199.751 352.688 205.884 380.695 217.631 405.866 229.378 431.038 246.679 453.547 268.147 470.154 266.122 467.493 264.097 464.773 262.071 462.111Z" fill="url(#fill4)" fill-rule="nonzero" transform="matrix(1 0 0 1.00051 213.058 25)"/><path d="M234.122 128.75C245.29 117.293 257.905 106.993 271.503 97.9079L272.776 97.0399 274.107 96.2298 276.711 94.6096 281.977 91.3691 283.308 90.559C283.771 90.2697 284.234 90.0382 284.639 89.8067L287.358 88.3022 292.74 85.3511 294.071 84.5989C294.534 84.3674 294.997 84.1359 295.46 83.9045L298.237 82.5736 303.85 79.9118 305.239 79.2174C305.702 78.986 306.165 78.8124 306.685 78.5809L309.521 77.3657 315.249 74.9354C345.976 62.4944 379.595 56.1292 413.273 56.0713 446.893 56.0713 480.57 62.4944 511.354 74.9933L517.083 77.4236 519.919 78.6388C520.381 78.8702 520.902 79.0438 521.365 79.2753L522.754 79.9697 528.367 82.6315 531.144 83.9624C531.607 84.1938 532.07 84.4253 532.533 84.6567L533.864 85.409 539.245 88.3601 541.965 89.8646C542.428 90.0961 542.891 90.3275 543.296 90.6169L544.627 91.427 549.893 94.6674 552.497 96.2876 553.828 97.0977 555.101 97.9657C568.699 107.051 581.313 117.293 592.481 128.808 580.156 118.45 567.021 108.96 553.075 100.859L551.802 100.049 550.471 99.2966 547.81 97.85 542.486 94.8989 541.155 94.1466C540.692 93.9152 540.229 93.6837 539.766 93.4522L537.047 92.1213 531.607 89.4595 530.219 88.7652C529.756 88.5337 529.293 88.3601 528.83 88.1286L526.052 86.9135 520.497 84.4831 519.108 83.8466C518.646 83.673 518.183 83.4994 517.72 83.268L514.884 82.1685 509.213 79.9697 507.767 79.4489C507.304 79.2753 506.783 79.1017 506.32 78.986L503.427 78.0022 497.64 76.0927 496.194 75.6298 494.747 75.2247 491.796 74.3567 485.952 72.6786C485.489 72.5629 484.968 72.3893 484.505 72.2736L483.001 71.9264 480.049 71.232 474.089 69.7854C473.106 69.5539 472.122 69.3225 471.08 69.1489L468.071 68.5702 462.053 67.4129C461.07 67.1815 460.028 67.0657 459.044 66.8921L456.035 66.4292 449.96 65.5034 449.207 65.3876 448.455 65.3298 446.951 65.1562 443.884 64.809 437.808 64.1725C433.757 63.8831 429.649 63.6517 425.598 63.3624L413.331 63.073 401.063 63.3624C397.013 63.6517 392.904 63.8831 388.854 64.1725L382.778 64.809 379.711 65.1562 378.207 65.3298 377.454 65.3876 376.702 65.5034 370.626 66.4292 367.617 66.8921C366.634 67.0657 365.592 67.1815 364.608 67.4129L358.59 68.5702 355.581 69.1489C354.598 69.3225 353.556 69.5539 352.572 69.7854L346.612 71.232 343.661 71.9264 342.157 72.2736C341.694 72.3893 341.173 72.5629 340.71 72.6786L334.866 74.3567 331.915 75.2247 330.468 75.6298 329.021 76.0927 323.235 78.0022 320.342 78.986C319.879 79.1596 319.358 79.2753 318.895 79.4489L317.448 79.9697 311.777 82.1685 308.942 83.268C308.479 83.4416 308.016 83.6152 307.553 83.8466L306.165 84.4831 300.61 86.9135C298.758 87.7815 296.848 88.4758 295.054 89.4017L289.615 92.0635 286.895 93.3944C286.433 93.6258 285.97 93.8573 285.507 94.0888L284.118 94.8989 278.794 97.85 276.133 99.2966 274.802 100.049 273.529 100.859C259.583 108.96 246.448 118.392 234.122 128.75Z" fill="#8AB143" fill-rule="nonzero" fill-opacity="1" transform="matrix(1 0 0 1.00051 213.058 25)"/><path d="M237.942 524.49C237.652 524.258 237.652 523.969 237.884 523.68L256.285 502.733C256.516 502.443 256.806 502.443 257.095 502.675L260.509 505.684C260.798 505.915 260.798 506.204 260.567 506.494L242.166 527.441C241.934 527.73 241.645 527.73 241.356 527.499L237.942 524.49Z" fill="#8AB143" fill-rule="nonzero" fill-opacity="1" transform="matrix(1 0 0 1.00051 213.058 25)"/><path d="M260.393 542.486C260.046 542.197 259.93 541.907 259.988 541.502L265.948 521.828 265.717 521.654 254.202 537.278C253.97 537.567 253.739 537.625 253.449 537.394L250.325 535.079C250.035 534.848 249.978 534.616 250.209 534.327L266.758 511.875C266.99 511.586 267.221 511.528 267.511 511.76L271.851 514.942C272.256 515.231 272.371 515.579 272.256 515.926L266.18 535.369 266.411 535.542 277.811 520.034C278.042 519.745 278.274 519.687 278.563 519.919L281.688 522.233C281.977 522.465 282.035 522.696 281.803 522.985L265.254 545.437C265.022 545.726 264.791 545.784 264.502 545.553L260.393 542.486Z" fill="#8AB143" fill-rule="nonzero" fill-opacity="1" transform="matrix(1 0 0 1.00051 213.058 25)"/><path d="M278.274 554.175C277.926 554.001 277.869 553.712 278.1 553.422L289.673 533.69C289.789 533.517 289.731 533.343 289.557 533.228L284.986 530.508C284.639 530.334 284.581 530.045 284.812 529.756L286.895 526.226C287.069 525.879 287.358 525.821 287.648 526.052L302.288 534.674C302.635 534.848 302.693 535.137 302.461 535.426L300.378 538.956C300.204 539.303 299.915 539.361 299.626 539.13L295.054 536.41C294.881 536.294 294.707 536.352 294.592 536.526L283.019 556.258C282.845 556.605 282.556 556.663 282.266 556.431L278.274 554.175Z" fill="#8AB143" fill-rule="nonzero" fill-opacity="1" transform="matrix(1 0 0 1.00051 213.058 25)"/><path d="M296.27 564.128C295.922 563.954 295.865 563.722 295.98 563.375L307.785 538.088C307.958 537.741 308.19 537.683 308.537 537.799L321.73 543.933C322.078 544.106 322.135 544.338 322.02 544.685L320.284 548.388C320.11 548.735 319.879 548.793 319.531 548.677L311.257 544.801C311.083 544.685 310.91 544.743 310.794 544.974L308.306 550.298C308.19 550.471 308.248 550.645 308.479 550.761L315.654 554.117C316.002 554.29 316.06 554.522 315.944 554.869L314.208 558.572C314.034 558.92 313.803 558.978 313.456 558.862L306.28 555.506C306.107 555.39 305.933 555.448 305.817 555.679L303.213 561.234C303.098 561.408 303.156 561.581 303.387 561.697L311.662 565.574C312.009 565.748 312.067 565.979 311.951 566.326L310.215 570.03C310.042 570.377 309.81 570.435 309.463 570.319L296.27 564.128Z" fill="#8AB143" fill-rule="nonzero" fill-opacity="1" transform="matrix(1 0 0 1.00051 213.058 25)"/><path d="M326.533 577.321C324.624 576.626 323.119 575.643 322.02 574.196 320.92 572.807 320.399 571.187 320.457 569.335 320.457 568.988 320.515 568.641 320.515 568.236 320.573 567.889 320.689 567.368 320.862 566.731 321.036 566.095 321.267 565.227 321.615 564.243 321.962 563.202 322.425 561.871 323.003 560.193 323.582 558.515 324.045 557.184 324.45 556.142 324.797 555.158 325.144 554.348 325.434 553.712 325.723 553.133 325.954 552.67 326.128 552.323 326.302 551.976 326.533 551.687 326.765 551.397 327.864 549.893 329.311 548.967 330.989 548.504 332.725 548.099 334.519 548.215 336.428 548.851 338.685 549.661 340.363 550.934 341.462 552.67 342.562 554.406 342.851 556.489 342.33 558.862 342.272 559.209 342.099 559.325 341.694 559.267L337.47 558.572C337.122 558.515 336.949 558.283 337.007 557.878 337.122 556.836 337.007 555.969 336.66 555.274 336.312 554.58 335.676 554.117 334.692 553.77 333.998 553.538 333.361 553.48 332.725 553.596 332.088 553.712 331.567 554.059 331.104 554.695 330.989 554.869 330.873 555.043 330.757 555.216 330.642 555.448 330.526 555.737 330.294 556.258 330.063 556.721 329.831 557.415 329.542 558.283 329.253 559.151 328.79 560.366 328.269 561.871 327.748 563.375 327.343 564.59 326.996 565.458 326.707 566.326 326.475 567.079 326.302 567.542 326.186 568.062 326.07 568.41 326.012 568.641 325.954 568.872 325.954 569.046 325.954 569.278 325.954 570.03 326.128 570.608 326.533 571.129 326.938 571.65 327.517 571.997 328.269 572.286 329.021 572.518 329.716 572.576 330.294 572.46 330.931 572.344 331.452 571.939 331.915 571.361 332.03 571.187 332.146 571.013 332.262 570.84 332.378 570.666 332.493 570.435 332.609 570.088 332.725 569.798 332.898 569.393 333.072 568.872 333.246 568.352 333.477 567.715 333.766 566.905 333.824 566.674 333.766 566.558 333.535 566.5L330.699 565.516C330.352 565.401 330.237 565.169 330.352 564.822L331.567 561.234C331.683 560.887 331.915 560.771 332.262 560.887L339.9 563.549C340.247 563.665 340.363 563.896 340.247 564.243L339.669 565.863C339.09 567.484 338.627 568.815 338.28 569.856 337.933 570.84 337.585 571.65 337.296 572.286 337.007 572.923 336.775 573.386 336.602 573.675 336.428 574.022 336.197 574.312 335.965 574.601 334.866 576.106 333.477 577.031 331.741 577.437 330.352 578.131 328.501 578.015 326.533 577.321Z" fill="#8AB143" fill-rule="nonzero" fill-opacity="1" transform="matrix(1 0 0 1.00051 213.058 25)"/><path d="M358.533 585.769C358.128 585.653 357.954 585.422 357.896 585.075L356.392 573.791 355.987 573.675 353.672 573.154C353.44 573.097 353.325 573.212 353.267 573.386L350.952 583.454C350.894 583.802 350.663 583.975 350.258 583.86L345.802 582.818C345.455 582.76 345.281 582.529 345.397 582.124L351.704 554.985C351.762 554.638 351.994 554.464 352.399 554.58L360.037 556.374C362.93 557.068 365.013 558.283 366.286 560.135 367.56 561.987 367.907 564.301 367.212 567.194 366.807 569.046 366.113 570.493 365.129 571.592 364.145 572.692 362.988 573.444 361.599 573.849L363.509 586.463C363.509 586.869 363.393 586.984 362.988 586.926L358.533 585.769ZM356.565 568.641C358.128 568.988 359.285 568.988 360.095 568.525 360.905 568.12 361.426 567.194 361.715 565.863 362.004 564.533 361.889 563.549 361.426 562.797 360.905 562.044 359.863 561.524 358.301 561.176L356.565 560.771C356.334 560.713 356.218 560.829 356.16 561.003L354.598 567.831C354.54 568.062 354.656 568.178 354.829 568.236L356.565 568.641Z" fill="#8AB143" fill-rule="nonzero" fill-opacity="1" transform="matrix(1 0 0 1.00051 213.058 25)"/><path d="M372.999 588.373C372.652 588.315 372.478 588.084 372.536 587.737L376.529 560.135C376.586 559.788 376.818 559.614 377.165 559.672L381.679 560.308C382.026 560.366 382.199 560.598 382.142 560.945L378.149 588.547C378.091 588.894 377.86 589.067 377.512 589.01L372.999 588.373Z" fill="#8AB143" fill-rule="nonzero" fill-opacity="1" transform="matrix(1 0 0 1.00051 213.058 25)"/><path d="M393.02 590.688C392.673 590.688 392.499 590.456 392.499 590.109L394.062 567.252C394.062 567.021 393.946 566.905 393.772 566.905L388.449 566.558C388.102 566.558 387.928 566.326 387.928 565.979L388.217 561.871C388.217 561.524 388.449 561.35 388.796 561.35L405.751 562.507C406.098 562.507 406.271 562.739 406.271 563.086L405.982 567.194C405.982 567.542 405.751 567.715 405.403 567.715L400.08 567.368C399.848 567.368 399.733 567.484 399.733 567.657L398.17 590.514C398.17 590.861 397.939 591.035 397.592 591.035L393.02 590.688Z" fill="#8AB143" fill-rule="nonzero" fill-opacity="1" transform="matrix(1 0 0 1.00051 213.058 25)"/><path d="M417.786 591.44C417.439 591.44 417.208 591.266 417.208 590.919L416.919 579.693 409.801 563.202C409.685 562.854 409.801 562.623 410.206 562.623L414.777 562.507C415.125 562.507 415.356 562.681 415.472 563.028L419.58 573.733 419.754 573.733 423.226 562.854C423.342 562.507 423.573 562.276 423.862 562.276L428.434 562.16C428.839 562.16 429.012 562.334 428.897 562.681L422.589 579.52 422.879 590.745C422.879 591.093 422.705 591.324 422.358 591.324L417.786 591.44Z" fill="#8AB143" fill-rule="nonzero" fill-opacity="1" transform="matrix(1 0 0 1.00051 213.058 25)"/><path d="M438.039 586.811C437.808 586.348 437.519 585.885 437.345 585.306 437.113 584.728 436.94 584.033 436.708 583.281 436.535 582.471 436.303 581.545 436.072 580.388 435.84 579.288 435.609 577.899 435.32 576.221 435.088 574.601 434.857 573.154 434.741 572.055 434.625 570.898 434.51 569.914 434.51 569.104 434.452 568.294 434.452 567.599 434.51 567.021 434.567 566.442 434.625 565.863 434.741 565.343 435.32 561.755 436.824 558.804 439.254 556.489 441.685 554.233 444.752 552.786 448.513 552.207 452.274 551.629 455.63 552.092 458.581 553.538 461.533 554.985 463.905 557.357 465.525 560.598 465.757 561.061 465.988 561.581 466.22 562.16 466.451 562.681 466.683 563.375 466.856 564.185 467.03 564.995 467.261 565.921 467.493 567.079 467.724 568.178 467.956 569.567 468.245 571.245 468.419 572.402 468.534 573.328 468.65 574.08 468.766 574.833 468.824 575.527 468.824 576.048 468.824 576.569 468.881 577.031 468.881 577.379 468.881 577.726 468.824 578.015 468.766 578.362 468.476 580.04 467.84 581.313 466.856 582.181 465.815 583.049 464.599 583.57 463.211 583.802 461.88 584.033 460.607 583.917 459.507 583.454 458.408 582.992 457.482 582.239 456.788 581.14L456.73 581.14C456.44 582.413 455.978 583.397 455.283 584.091 454.647 584.785 453.547 585.248 452.043 585.48 449.497 585.885 447.645 584.901 446.488 582.644 446.314 582.413 446.198 582.124 446.083 581.776 445.967 581.429 445.851 580.966 445.678 580.388 445.562 579.809 445.388 579.115 445.215 578.305 445.041 577.494 444.867 576.395 444.694 575.122 444.52 573.849 444.347 572.807 444.231 571.939 444.115 571.071 444.057 570.377 443.999 569.798 443.942 569.22 443.942 568.757 443.942 568.41 443.942 568.062 443.999 567.715 444.057 567.426 444.462 564.88 445.909 563.433 448.397 563.028 449.439 562.854 450.365 562.97 451.059 563.317 451.753 563.665 452.332 564.185 452.795 564.88L452.911 564.88 452.679 563.317C452.621 562.97 452.795 562.739 453.142 562.681L456.672 562.16C457.019 562.102 457.251 562.276 457.308 562.623L459.507 577.089C459.854 579.172 460.838 580.098 462.516 579.809 463.731 579.635 464.426 578.941 464.542 577.784 464.542 577.668 464.599 577.494 464.599 577.321 464.599 577.147 464.599 576.858 464.542 576.453 464.484 576.048 464.426 575.527 464.31 574.775 464.194 574.08 464.079 573.097 463.847 571.881 463.616 570.261 463.384 568.872 463.153 567.773 462.921 566.674 462.748 565.806 462.574 565.111 462.401 564.417 462.227 563.838 462.053 563.433 461.88 563.028 461.706 562.623 461.533 562.218 460.317 559.845 458.639 558.167 456.498 557.068 454.357 556.026 451.811 555.679 449.034 556.142 446.198 556.605 443.884 557.647 442.148 559.267 440.412 560.945 439.312 563.028 438.907 565.69 438.849 566.095 438.792 566.558 438.792 567.021 438.792 567.484 438.734 568.062 438.792 568.815 438.849 569.567 438.907 570.435 439.023 571.534 439.139 572.634 439.37 573.965 439.602 575.643 439.833 577.263 440.065 578.652 440.296 579.751 440.47 580.851 440.701 581.719 440.875 582.413 441.048 583.107 441.222 583.686 441.395 584.149 441.569 584.612 441.743 584.959 441.916 585.306 443.074 587.621 444.752 589.357 446.951 590.398 449.092 591.498 451.638 591.787 454.473 591.324 456.267 591.035 457.829 590.63 459.102 589.993 460.375 589.357 461.533 588.604 462.458 587.679 462.748 587.447 462.979 587.447 463.269 587.737L465.12 589.646C465.352 589.935 465.352 590.225 465.062 590.456 463.674 591.729 462.227 592.829 460.607 593.639 458.987 594.449 457.193 595.028 455.052 595.317 451.29 595.896 447.934 595.433 444.925 593.986 442.032 592.424 439.717 590.051 438.039 586.811ZM450.422 579.635C451.001 580.619 451.811 581.024 452.969 580.851 454.126 580.677 454.762 580.04 454.936 578.941 454.936 578.825 454.994 578.652 454.994 578.478 454.994 578.305 454.994 578.015 454.936 577.61 454.878 577.205 454.82 576.684 454.704 576.048 454.589 575.411 454.473 574.543 454.299 573.502 454.126 572.46 454.01 571.592 453.894 570.956 453.779 570.319 453.721 569.798 453.605 569.451 453.547 569.046 453.431 568.815 453.374 568.641 453.316 568.467 453.258 568.352 453.2 568.236 452.737 567.252 451.869 566.789 450.712 566.963 449.612 567.136 448.918 567.773 448.687 568.93 448.687 569.046 448.629 569.22 448.629 569.393 448.629 569.567 448.629 569.856 448.687 570.261 448.744 570.666 448.802 571.187 448.918 571.824 449.034 572.46 449.149 573.328 449.323 574.37 449.497 575.411 449.612 576.279 449.728 576.916 449.844 577.552 449.902 578.073 450.017 578.478 450.075 578.883 450.191 579.115 450.249 579.288 450.307 579.404 450.365 579.52 450.422 579.635Z" fill="#8AB143" fill-rule="nonzero" fill-opacity="1" transform="matrix(1 0 0 1.00051 213.058 25)"/><path d="M480.744 582.876C480.397 582.992 480.165 582.818 480.049 582.471L472.758 555.563C472.643 555.216 472.816 554.985 473.163 554.869L477.561 553.654C477.908 553.538 478.14 553.712 478.256 554.059L485.547 580.966C485.662 581.313 485.489 581.545 485.142 581.661L480.744 582.876Z" fill="#8AB143" fill-rule="nonzero" fill-opacity="1" transform="matrix(1 0 0 1.00051 213.058 25)"/><path d="M508.172 574.08C507.767 574.254 507.42 574.138 507.13 573.849L493.995 558.052 493.706 558.167 500.418 576.337C500.534 576.684 500.418 576.916 500.071 577.031L496.425 578.362C496.078 578.478 495.847 578.362 495.731 578.015L486.067 551.86C485.952 551.513 486.067 551.281 486.415 551.166L491.449 549.314C491.912 549.14 492.259 549.198 492.49 549.545L505.336 565.343 505.626 565.227 498.971 547.115C498.856 546.768 498.971 546.536 499.319 546.421L502.964 545.09C503.311 544.974 503.543 545.09 503.658 545.437L513.264 571.592C513.38 571.939 513.264 572.171 512.917 572.286L508.172 574.08Z" fill="#8AB143" fill-rule="nonzero" fill-opacity="1" transform="matrix(1 0 0 1.00051 213.058 25)"/><path d="M530.971 564.533C528.367 565.806 526.11 566.211 524.201 565.632 522.233 565.111 520.671 563.78 519.398 561.639 519.224 561.35 519.224 561.061 519.513 560.829L523.101 558.283C523.39 558.052 523.622 558.11 523.853 558.399 525.242 560.424 526.862 561.003 528.656 560.135 530.624 559.151 531.029 557.589 529.987 555.448 529.524 554.58 529.003 553.943 528.251 553.596 527.557 553.249 526.457 553.191 525.011 553.422L522.812 553.77C521.654 553.943 520.613 554.001 519.687 553.943 518.761 553.885 517.951 553.654 517.199 553.249 516.447 552.844 515.81 552.323 515.231 551.629 514.653 550.934 514.074 550.066 513.553 548.967 512.396 546.594 512.165 544.453 512.917 542.428 513.669 540.403 515.174 538.84 517.488 537.741 519.919 536.526 522.117 536.237 523.911 536.815 525.705 537.394 527.325 538.609 528.54 540.518 528.714 540.808 528.714 541.097 528.425 541.329L524.953 543.701C524.663 543.933 524.432 543.875 524.201 543.585 523.564 542.775 522.927 542.254 522.233 541.965 521.539 541.676 520.729 541.792 519.861 542.197 517.951 543.122 517.488 544.569 518.472 546.479 518.877 547.289 519.398 547.81 520.034 548.157 520.671 548.504 521.654 548.504 523.043 548.33L525.242 547.983C526.515 547.752 527.615 547.694 528.54 547.81 529.466 547.925 530.334 548.157 531.086 548.562 531.839 548.967 532.533 549.545 533.17 550.298 533.806 551.05 534.327 551.918 534.906 553.017 536.063 555.39 536.352 557.647 535.774 559.672 535.195 561.639 533.575 563.26 530.971 564.533Z" fill="#8AB143" fill-rule="nonzero" fill-opacity="1" transform="matrix(1 0 0 1.00051 213.058 25)"/><path d="M546.768 555.448C546.479 555.621 546.189 555.563 546.016 555.274L531.723 531.318C531.549 531.029 531.607 530.739 531.897 530.566L535.831 528.251C536.121 528.078 536.41 528.135 536.584 528.425L550.876 552.381C551.05 552.67 550.992 552.96 550.703 553.133L546.768 555.448Z" fill="#8AB143" fill-rule="nonzero" fill-opacity="1" transform="matrix(1 0 0 1.00051 213.058 25)"/><path d="M560.598 546.942C560.308 547.173 560.019 547.115 559.845 546.826L543.585 524.143C543.354 523.853 543.412 523.564 543.701 523.39L550.356 518.588C552.265 517.199 554.059 516.447 555.679 516.389 557.299 516.273 558.92 516.852 560.482 518.009 560.829 518.24 561.176 518.53 561.581 518.877 561.929 519.224 562.334 519.629 562.797 520.208 563.26 520.729 563.78 521.423 564.359 522.175 564.938 522.927 565.632 523.853 566.384 524.953 567.136 526.052 567.831 526.978 568.352 527.788 568.872 528.598 569.335 529.293 569.683 529.929 570.03 530.508 570.319 531.086 570.551 531.549 570.782 532.012 570.956 532.475 571.071 532.88 571.708 534.732 571.708 536.468 571.071 537.915 570.435 539.419 569.162 540.866 567.252 542.197L560.598 546.942ZM563.78 538.204C564.648 537.625 565.169 536.989 565.401 536.294 565.632 535.658 565.632 534.848 565.343 533.98 565.227 533.748 565.111 533.459 564.995 533.17 564.88 532.88 564.648 532.533 564.417 532.07 564.128 531.665 563.838 531.144 563.375 530.508 562.97 529.871 562.392 529.119 561.755 528.193 561.061 527.267 560.54 526.515 560.077 525.879 559.614 525.3 559.209 524.779 558.92 524.374 558.572 523.969 558.341 523.68 558.11 523.448 557.878 523.217 557.647 523.043 557.473 522.87 556.084 521.828 554.58 521.944 552.96 523.101L551.166 524.374C550.992 524.49 550.934 524.663 551.108 524.837L561.524 539.361C561.639 539.535 561.813 539.593 561.987 539.419L563.78 538.204Z" fill="#8AB143" fill-rule="nonzero" fill-opacity="1" transform="matrix(1 0 0 1.00051 213.058 25)"/><path d="M583.281 529.756C582.992 529.987 582.76 529.987 582.471 529.698L564.012 508.808C563.78 508.519 563.78 508.288 564.07 507.998L574.948 498.335C575.238 498.103 575.469 498.103 575.758 498.393L578.478 501.46C578.71 501.749 578.71 501.98 578.42 502.27L571.592 508.288C571.419 508.461 571.419 508.577 571.592 508.751L575.469 513.148C575.643 513.322 575.758 513.322 575.932 513.148L581.834 507.94C582.124 507.709 582.355 507.709 582.644 507.998L585.364 511.065C585.595 511.354 585.595 511.586 585.306 511.875L579.404 517.083C579.23 517.257 579.23 517.372 579.346 517.546L583.397 522.117C583.57 522.291 583.686 522.291 583.86 522.117L590.688 516.099C590.977 515.868 591.208 515.868 591.498 516.157L594.217 519.224C594.449 519.513 594.449 519.745 594.16 520.034L583.281 529.756Z" fill="#8AB143" fill-rule="nonzero" fill-opacity="1" transform="matrix(1 0 0 1.00051 213.058 25)"/><g clip-path="url(#clip5)"><path d="M0-90.7326C-49.9955-90.7326-90.7326-50.0534-90.7326 0-90.7326 49.9955-50.0534 90.7326 0 90.7326 49.9955 90.7326 90.7326 50.0534 90.7326 0 90.7326-49.9955 49.9955-90.7326 0-90.7326ZM0 84.1938C-46.4079 84.1938-84.1938 46.4079-84.1938 0-84.1938-46.4657-46.4079-84.1938 0-84.1938 46.4657-84.1938 84.1938-46.4079 84.1938 0 84.1938 46.4657 46.4657 84.1938 0 84.1938Z" fill="#364953" fill-rule="nonzero" fill-opacity="1" transform="matrix(1 0 0 -1.00051 626.672 356.996)"/><path d="M0-78.0022C-42.9938-78.0022-78.0022-42.9938-78.0022 0-78.0022 42.9938-42.9938 78.0022 0 78.0022 42.9938 78.0022 78.0022 42.9938 78.0022 0 78.0022-42.9938 42.9938-78.0022 0-78.0022ZM0 71.5213C-39.4062 71.5213-71.5213 39.464-71.5213 0-71.5213-39.4062-39.464-71.5213 0-71.5213 39.4062-71.5213 71.5213-39.464 71.5213 0 71.5213 39.4062 39.4062 71.5213 0 71.5213Z" fill="#364953" fill-rule="nonzero" fill-opacity="1" transform="matrix(1 0 0 -1.00051 626.672 356.996)"/><path d="M0-65.1562C-35.9343-65.1562-65.1562-35.9343-65.1562 0-65.1562 35.9343-35.9343 65.1562 0 65.1562 35.9343 65.1562 65.1562 35.9343 65.1562 0 65.1562-35.9343 35.9343-65.1562 0-65.1562ZM0 58.6174C-32.3466 58.6174-58.6174 32.2888-58.6174 0-58.6174-32.3466-32.2888-58.6174 0-58.6174 32.3466-58.6174 58.6174-32.2888 58.6174 0 58.6174 32.3466 32.3466 58.6174 0 58.6174Z" fill="#364953" fill-rule="nonzero" fill-opacity="1" transform="matrix(1 0 0 -1.00051 626.672 356.996)"/><path d="M53.1333 0C53.1333 29.3447 29.3447 53.1333 1.76634e-06 53.1333-29.3447 53.1333-53.1333 29.3447-53.1333 1.76634e-06-53.1333-29.3447-29.3447-53.1333 2.64951e-06-53.1333 29.3447-53.1333 53.1333-29.3447 53.1333 0Z" fill="#364953" fill-rule="nonzero" fill-opacity="1" transform="matrix(0.706926 0.707287 0.706926 -0.707287 626.672 356.996)"/><path d="M-67.1815-78.0022C-67.9337-78.0022-68.7438-77.7129-69.3803-77.1921-91.2534-57.518-103.81-29.3955-103.81 0-103.81 29.9742-90.8483 58.5017-68.223 78.2337-66.8921 79.391-64.809 79.2753-63.6517 77.9444-62.4944 76.6135-62.6101 74.5303-63.941 73.373-85.1197 54.8562-97.2713 28.1803-97.2713 0.0578652-97.2713-27.486-85.5247-53.8725-65.0405-72.2736-63.7095-73.4888-63.5938-75.514-64.809-76.8449-65.3876-77.6551-66.2556-78.0022-67.1815-78.0022Z" fill="#C6D0D7" fill-rule="nonzero" fill-opacity="1" transform="matrix(1 0 0 -1.00051 626.672 356.996)"/><path d="M67.1815-78.0022C66.3135-78.0022 65.3876-77.6551 64.7511-76.9028 63.536-75.5719 63.6517-73.4888 64.9826-72.3315 85.4669-53.9303 97.2135-27.5438 97.2135 0 97.2135 28.1225 85.0618 54.7983 63.8831 73.3152 62.5522 74.4725 62.3787 76.5556 63.5938 77.8865 64.7511 79.2174 66.8343 79.391 68.1652 78.1758 90.7904 58.4438 103.752 29.9163 103.752-0.0578652 103.752-29.4534 91.1955-57.5758 69.3225-77.25 68.7438-77.7129 67.9337-78.0022 67.1815-78.0022Z" fill="#C6D0D7" fill-rule="nonzero" fill-opacity="1" transform="matrix(1 0 0 -1.00051 626.672 356.996)"/><path d="M94.2624-66.1978C93.6258-66.1978 92.9893-66.0242 92.4685-65.677 90.964-64.6933 90.559-62.668 91.6006-61.1635 103.694-43.0517 110.117-21.9309 110.117-0.0578652 110.117 21.8152 103.694 42.936 91.6006 61.0478 90.6169 62.5522 91.0219 64.5775 92.4685 65.5612 93.973 66.5449 95.9983 66.1399 96.982 64.6933 109.77 45.5399 116.598 23.1461 116.598 0 116.598-23.1461 109.828-45.5399 96.982-64.7511 96.3455-65.677 95.3039-66.1978 94.2624-66.1978Z" fill="#C6D0D7" fill-rule="nonzero" fill-opacity="1" transform="matrix(1 0 0 -1.00051 626.672 356.996)"/><path d="M-94.2624-66.1978C-95.3039-66.1978-96.3455-65.677-96.982-64.7511-109.77-45.5399-116.598-23.1461-116.598 0-116.598 23.1461-109.828 45.5399-96.982 64.7511-95.9983 66.2556-93.973 66.6607-92.4685 65.6191-90.964 64.6354-90.559 62.6101-91.6006 61.1056-103.694 42.9938-110.117 21.873-110.117 8.22316e-15-110.117-21.873-103.694-42.9938-91.6006-61.1056-90.6169-62.6101-91.0219-64.6354-92.4685-65.6191-92.9893-65.9663-93.6258-66.1978-94.2624-66.1978Z" fill="#C6D0D7" fill-rule="nonzero" fill-opacity="1" transform="matrix(1 0 0 -1.00051 626.672 356.996)"/><path d="M117.003-51.7893C116.598-51.7893 116.193-51.7315 115.73-51.5579 114.052-50.8635 113.3-48.9539 113.994-47.3337 120.244-32.3466 123.369-16.4337 123.369-0.0578652 123.369 16.318 120.186 32.2309 113.994 47.218 113.3 48.8961 114.11 50.8056 115.73 51.4421 117.408 52.1365 119.318 51.3264 119.954 49.7062 126.493 33.909 129.849 17.186 129.849-0.0578652 129.849-17.3017 126.551-34.0247 119.954-49.8219 119.492-51.0371 118.276-51.7893 117.003-51.7893Z" fill="#C6D0D7" fill-rule="nonzero" fill-opacity="1" transform="matrix(1 0 0 -1.00051 626.672 356.996)"/><path d="M-117.003-51.7893C-118.276-51.7893-119.492-51.0371-120.012-49.764-126.551-33.9669-129.907-17.2438-129.907 0-129.907 17.2438-126.609 33.9669-120.012 49.764-119.318 51.4421-117.408 52.1944-115.788 51.5-114.11 50.8056-113.358 48.8961-114.052 47.2758-120.302 32.2888-123.426 16.3758-123.426 0-123.426-16.3758-120.244-32.2888-114.052-47.2758-113.358-48.9539-114.168-50.8635-115.788-51.5-116.135-51.6736-116.598-51.7893-117.003-51.7893Z" fill="#C6D0D7" fill-rule="nonzero" fill-opacity="1" transform="matrix(1 0 0 -1.00051 626.672 356.996)"/><path d="M135.578-36.8022C135.347-36.8022 135.057-36.7444 134.826-36.6865 133.09-36.2815 131.99-34.4876 132.453-32.7517 135.115-22.0466 136.446-11.0522 136.446 0 136.446 11.0522 135.115 22.1045 132.453 32.7517 132.048 34.4876 133.09 36.2815 134.826 36.6865 136.562 37.0916 138.356 36.05 138.761 34.314 141.48 23.1461 142.869 11.573 142.869 0 142.869-11.573 141.48-23.1461 138.703-34.314 138.356-35.8185 137.025-36.8022 135.578-36.8022Z" fill="#C6D0D7" fill-rule="nonzero" fill-opacity="1" transform="matrix(1 0 0 -1.00051 626.672 356.996)"/><path d="M-135.578-36.8022C-137.025-36.8022-138.356-35.8185-138.703-34.314-141.48-23.1461-142.869-11.573-142.869 0-142.869 11.573-141.48 23.1461-138.703 34.314-138.298 36.05-136.504 37.1494-134.768 36.6865-133.032 36.2815-131.933 34.4876-132.396 32.7517-135.057 22.0466-136.388 11.0522-136.388 0-136.388-11.0522-135.057-22.1045-132.396-32.7517-131.99-34.4876-133.032-36.2815-134.768-36.6865-135.057-36.7444-135.347-36.8022-135.578-36.8022Z" fill="#C6D0D7" fill-rule="nonzero" fill-opacity="1" transform="matrix(1 0 0 -1.00051 626.672 356.996)"/><path d="M152.533-20.0213C152.417-20.0213 152.301-20.0213 152.185-20.0213 150.392-19.8478 149.119-18.2275 149.292-16.4337 149.871-10.9365 150.218-5.43933 150.218-2.05578e-15 150.218 5.43933 149.929 10.9365 149.292 16.4337 149.119 18.2275 150.392 19.8478 152.185 20.0213 153.979 20.1949 155.599 18.9219 155.773 17.1281 156.41 11.3994 156.699 5.67079 156.699-4.11157e-15 156.699-5.67079 156.41-11.3994 155.773-17.1281 155.599-18.8062 154.153-20.0213 152.533-20.0213Z" fill="#C6D0D7" fill-rule="nonzero" fill-opacity="1" transform="matrix(1 0 0 -1.00051 626.672 356.996)"/><path d="M-152.533-20.0213C-154.153-20.0213-155.599-18.8062-155.773-17.1281-156.41-11.3994-156.699-5.67079-156.699 0-156.699 5.67079-156.41 11.4573-155.773 17.1281-155.599 18.9219-153.979 20.1949-152.185 20.0213-150.392 19.8478-149.119 18.2275-149.292 16.4337-149.871 10.9365-150.218 5.43933-150.218 2.05578e-15-150.218-5.43933-149.929-10.9365-149.292-16.4337-149.119-18.2275-150.392-19.8478-152.185-20.0213-152.301-20.0213-152.417-20.0213-152.533-20.0213Z" fill="#C6D0D7" fill-rule="nonzero" fill-opacity="1" transform="matrix(1 0 0 -1.00051 626.672 356.996)"/><path d="M-34.6068 51.2737C-34.6068 62.3642-43.5975 71.3549-54.6881 71.3549-65.7786 71.3549-74.7693 62.3642-74.7693 51.2737-74.7693 40.1831-65.7786 31.1924-54.6881 31.1924-43.5975 31.1924-34.6068 40.1831-34.6068 51.2737Z" fill="#FFFFFF" fill-rule="nonzero" fill-opacity="1" transform="matrix(0.923808 0.382857 0.382662 -0.92428 602.89 374.024)"/><path d="M-19.9635 26.7916C-19.9635 32.4801-24.5749 37.0916-30.2635 37.0916-35.952 37.0916-40.5635 32.4801-40.5635 26.7916-40.5635 21.103-35.952 16.4916-30.2635 16.4916-24.5749 16.4916-19.9635 21.103-19.9635 26.7916Z" fill="#FFFFFF" fill-rule="nonzero" fill-opacity="1" transform="matrix(1 0 0 -1.00051 626.672 356.996)"/></g></g></g></g></g></svg>